<svg xmlns="http://www.w3.org/2000/svg" width="100" height="100" id="discover"><g transform="translate(155.153 -382.028)"><rect width="63.214" height="40.714" x="-136.758" y="413.183" fill="#f9f9f9" fill-rule="evenodd" stroke="#000" stroke-linecap="round" stroke-linejoin="round" stroke-width=".8" rx="3.599" ry="3.599"></rect><g style="line-height:125%;-inkscape-font-specification:Sans Bold" word-spacing="0"><path style="-inkscape-font-specification:Sans Bold" fill="#1a1a1a" d="M-144.806 393.744h3.14c.708 0 1.248.054 1.62.162.499.147.926.409 1.282.784.356.375.627.835.813 1.378.185.544.278 1.214.278 2.011 0 .7-.087 1.304-.26 1.811-.214.62-.517 1.12-.912 1.503-.298.29-.7.517-1.207.68-.38.12-.886.18-1.52.18h-3.234zm1.718 1.44v5.635h1.283c.48 0 .826-.027 1.039-.082.278-.07.51-.187.693-.354.184-.166.334-.44.45-.82.116-.382.174-.901.174-1.56 0-.657-.058-1.162-.174-1.514-.116-.352-.278-.627-.487-.824a1.635 1.635 0 0 0-.795-.4c-.24-.055-.71-.082-1.41-.082zm6.826 7.068v-8.508h1.717v8.508zm2.913-2.768 1.672-.163c.1.561.304.973.612 1.236.307.264.722.395 1.245.395.553 0 .97-.117 1.25-.351.281-.234.421-.508.421-.821a.775.775 0 0 0-.177-.514c-.118-.141-.324-.264-.618-.368-.201-.07-.66-.194-1.375-.372-.921-.228-1.567-.509-1.939-.841-.522-.469-.783-1.04-.783-1.713 0-.433.123-.838.368-1.215.246-.378.6-.665 1.062-.862.463-.198 1.02-.296 1.675-.296 1.068 0 1.871.234 2.411.702.54.468.823 1.093.85 1.875l-1.718.075c-.073-.437-.23-.752-.473-.943-.241-.192-.604-.287-1.088-.287-.499 0-.89.102-1.172.307a.62.62 0 0 0-.273.528c0 .202.085.374.255.517.217.182.743.371 1.58.569.835.197 1.453.401 1.853.612.4.21.714.5.94.865.227.365.34.817.34 1.355 0 .487-.135.944-.406 1.37-.271.425-.654.742-1.15.949-.495.207-1.112.31-1.85.31-1.076 0-1.902-.249-2.479-.746-.576-.497-.92-1.221-1.033-2.173zm13.819-.36 1.665.528c-.255.929-.68 1.618-1.273 2.07-.594.45-1.348.675-2.261.675-1.13 0-2.058-.386-2.786-1.158-.727-.771-1.09-1.827-1.09-3.166 0-1.416.365-2.515 1.096-3.299.731-.783 1.693-1.175 2.884-1.175 1.041 0 1.887.307 2.537.923.387.363.677.886.87 1.567l-1.7.406c-.1-.441-.31-.79-.63-1.045-.32-.255-.707-.383-1.164-.383-.63 0-1.142.226-1.535.68-.392.452-.589 1.185-.589 2.199 0 1.075.194 1.842.58 2.298.388.457.89.685 1.51.685.456 0 .849-.145 1.178-.435.329-.29.565-.747.708-1.37zm2.797-1.074c0-.866.13-1.594.39-2.182.193-.433.457-.822.791-1.167.335-.344.702-.6 1.1-.766.53-.224 1.141-.336 1.834-.336 1.254 0 2.257.389 3.01 1.166.752.778 1.128 1.86 1.128 3.245 0 1.373-.373 2.448-1.12 3.224-.747.775-1.745 1.163-2.995 1.163-1.265 0-2.27-.386-3.018-1.158-.746-.771-1.12-1.835-1.12-3.189zm1.77-.058c0 .964.223 1.694.668 2.191.445.497 1.01.746 1.694.746.685 0 1.247-.247 1.686-.74.44-.493.66-1.233.66-2.22 0-.975-.215-1.702-.642-2.182-.428-.48-.995-.72-1.704-.72-.708 0-1.278.243-1.712.729-.433.485-.65 1.217-.65 2.196zm9.989 4.26-3.042-8.508h1.863l2.154 6.297 2.083-6.297h1.823l-3.047 8.508zm5.769 0v-8.508h6.308v1.44h-4.59v1.885h4.271v1.434h-4.272v2.316h4.754v1.433zm7.945 0v-8.508h3.616c.909 0 1.57.076 1.982.23.412.152.742.424.99.815.247.39.37.837.37 1.34 0 .639-.187 1.166-.562 1.582-.376.416-.937.678-1.683.786.371.217.678.455.92.714.241.26.567.72.977 1.381l1.04 1.66h-2.055l-1.242-1.851c-.441-.662-.743-1.079-.906-1.25a1.318 1.318 0 0 0-.516-.355c-.182-.064-.47-.096-.865-.096h-.348v3.552zm1.718-4.91h1.27c.825 0 1.34-.035 1.545-.104a.925.925 0 0 0 .481-.36c.116-.17.174-.383.174-.639 0-.286-.076-.517-.229-.693-.153-.176-.368-.287-.647-.334-.14-.02-.557-.029-1.254-.029h-1.34z" font-family="Sans" font-size="11.886" font-weight="700" letter-spacing="0" transform="scale(.91734 1.0901)"></path></g><path fill="#fc8100" fill-rule="evenodd" d="M-98.049 433.962a4.988 4.988 0 1 1-9.975 0 4.988 4.988 0 0 1 9.975 0z"></path><path fill="#fc8100" d="m-73.944 438.88-45.563 13.78-1.593.844h43.776c1.994 0 3.38-1.31 3.38-3.303z"></path></g></svg>